<svg width="50" height="50" viewBox="0 0 50 50" fill="none" xmlns="http://www.w3.org/2000/svg">
<path d="M28.6042 43.75C28.2379 44.3814 27.7122 44.9055 27.0796 45.2698C26.4471 45.6341 25.73 45.8259 25 45.8259C24.27 45.8259 23.5529 45.6341 22.9204 45.2698C22.2878 44.9055 21.7621 44.3814 21.3958 43.75M37.5 16.6666C37.5 13.3514 36.183 10.172 33.8388 7.82779C31.4946 5.48359 28.3152 4.16663 25 4.16663C21.6848 4.16663 18.5054 5.48359 16.1612 7.82779C13.817 10.172 12.5 13.3514 12.5 16.6666C12.5 31.25 6.25 35.4166 6.25 35.4166H43.75C43.75 35.4166 37.5 31.25 37.5 16.6666Z" stroke="#F3F3F3" stroke-width="4" stroke-linecap="round" stroke-linejoin="round"/>
</svg>
