<svg width="37" height="37" viewBox="0 0 37 37" fill="none" xmlns="http://www.w3.org/2000/svg">
<path d="M11.0345 16.9772V10.8853C11.0345 8.86576 11.8368 6.9289 13.2648 5.50084C14.6929 4.07278 16.6297 3.27051 18.6493 3.27051C20.6689 3.27051 22.6058 4.07278 24.0338 5.50084C25.4619 6.9289 26.2642 8.86576 26.2642 10.8853V16.9772M7.98856 16.9772H29.3101C30.9923 16.9772 32.356 18.3409 32.356 20.0231V30.6839C32.356 32.3661 30.9923 33.7298 29.3101 33.7298H7.98856C6.30634 33.7298 4.94263 32.3661 4.94263 30.6839V20.0231C4.94263 18.3409 6.30634 16.9772 7.98856 16.9772Z" stroke="#F3F3F3" stroke-width="4" stroke-linecap="round" stroke-linejoin="round"/>
</svg>
